<?xml version="1.0" encoding="utf-8"?>
<!-- Generator: Adobe Illustrator 23.0.5, SVG Export Plug-In . SVG Version: 6.00 Build 0)  -->
<svg version="1.1" id="Calque_1" xmlns="http://www.w3.org/2000/svg" xmlns:xlink="http://www.w3.org/1999/xlink" x="0px" y="0px"
	 viewBox="0 0 50 42" style="enable-background:new 0 0 50 42;" xml:space="preserve">
<style type="text/css">
	.st0{fill:#D3D4ED;}
	.st1{fill:#D12F26;}
</style>
<title>Options</title>
<g id="Layer_2">
	<g id="Options">
		<path class="st0" d="M40.5,12h7c1.4,0,2.5-1.1,2.5-2.5S48.9,7,47.5,7h-7C39.1,7,38,8.1,38,9.5S39.1,12,40.5,12z M15.5,7h-13
			C1.1,7,0,8.1,0,9.5S1.1,12,2.5,12h13c1.4,0,2.5-1.1,2.5-2.5S16.9,7,15.5,7z M9.5,30h-7C1.1,30,0,31.1,0,32.5C0,33.9,1.1,35,2.5,35
			h7c1.4,0,2.5-1.1,2.5-2.5C12,31.1,10.9,30,9.5,30z M47.5,30h-13c-1.4,0-2.5,1.1-2.5,2.5c0,1.4,1.1,2.5,2.5,2.5h13
			c1.4,0,2.5-1.1,2.5-2.5C50,31.1,48.9,30,47.5,30z"/>
		<g>
			<path class="st1" d="M18.5,23C13.3,23,9,27.3,9,32.5s4.3,9.5,9.5,9.5s9.5-4.3,9.5-9.5S23.7,23,18.5,23z M18.5,37
				C16,37,14,35,14,32.5s2-4.5,4.5-4.5s4.5,2,4.5,4.5C23,35,21,37,18.5,37z M31.5,0C26.3,0,22,4.3,22,9.5s4.3,9.5,9.5,9.5
				S41,14.7,41,9.5S36.7,0,31.5,0z M31.5,14C29,14,27,12,27,9.5S29,5,31.5,5S36,7,36,9.5C36,12,34,14,31.5,14z"/>
		</g>
	</g>
</g>
</svg>
