<?xml version="1.0" encoding="utf-8"?>
<!-- Generator: Adobe Illustrator 23.0.5, SVG Export Plug-In . SVG Version: 6.00 Build 0)  -->
<svg version="1.1" id="Calque_1" xmlns="http://www.w3.org/2000/svg" xmlns:xlink="http://www.w3.org/1999/xlink" x="0px" y="0px"
	 viewBox="0 0 49.9 49.9" style="enable-background:new 0 0 49.9 49.9;" xml:space="preserve">
<style type="text/css">
	.st0{fill:#D3D4ED;}
	.st1{fill:#D12F26;}
</style>
<title>Search</title>
<g id="Layer_2">
	<g id="Search">
		<path class="st0" d="M49.1,45.6L38.6,35c-1.1-1.1-2.8-1.1-3.9,0c-6.9,6.7-18,6.5-24.7-0.4s-6.5-18,0.4-24.7s18-6.5,24.7,0.4
			c2.2,2.3,3.8,5.2,4.5,8.4c0.6,2.7,0.5,5.6-0.2,8.3c-0.4,1.3,0.4,2.7,1.8,3.1c1.3,0.4,2.7-0.4,3.1-1.8l0,0c3.2-12-4-24.4-16-27.6
			s-24.4,4-27.6,16s4,24.4,16,27.6c6.9,1.8,14.3,0.3,19.9-4.2l9.1,9.1c1,1,2.6,1,3.5,0c0,0,0,0,0,0C50.1,48.2,50.1,46.6,49.1,45.6
			C49.2,45.6,49.1,45.6,49.1,45.6z"/>
		<path class="st1" d="M30,30c-0.8-0.8-2.1-0.9-3-0.3c-2.6,1.6-6,1.7-8.7,0.2c-0.9-0.5-2.1-0.4-2.9,0.3l-0.1,0.1
			c-1,0.9-1,2.4-0.1,3.4c0.1,0.2,0.3,0.3,0.5,0.4c4.4,2.5,9.7,2.4,14-0.3c1.1-0.7,1.5-2.2,0.7-3.3c-0.1-0.1-0.2-0.3-0.3-0.4L30,30z"
			/>
	</g>
</g>
</svg>
