<svg xmlns="http://www.w3.org/2000/svg" viewBox="0 0 2892.76 1554.65"><defs><style>.cls-1{fill:#dcdfea;}.cls-2{fill:#82b378;}.cls-3{fill:#a8d29f;}.cls-4{fill:#2c3a64;}.cls-5{fill:#2b478b;}.cls-6{fill:#233862;}.cls-7{fill:#ffb27d;}.cls-8{fill:#d12f26;}.cls-9{fill:#ed985f;}.cls-10{fill:#fff;}.cls-11{fill:#fcecdb;}.cls-12{fill:#efcbab;}.cls-13{fill:#d83a36;}.cls-14{fill:#f99746;}.cls-15{opacity:0.5;}.cls-16{fill:#cde0fb;}.cls-17{fill:#b1cff2;}.cls-18{fill:#afcdfb;}.cls-19{fill:#ffad76;}.cls-20{fill:#9caad3;}.cls-21{fill:#172b4c;}.cls-22{fill:#aab4d1;}.cls-23{fill:#23407a;}.cls-24{fill:#ebf3fa;}.cls-25{fill:#ffbf94;}.cls-26{fill:#a6b1d1;}.cls-27{fill:#2e3552;}</style></defs><title>contact-image</title><g id="Calque_2" data-name="Calque 2"><g id="Слой_1" data-name="Слой 1"><path class="cls-1" d="M113.31,1551.44S-142.24,1162.76,137.44,742C385.59,368.6,777.12,665.49,999,285.58c302.55-518.1,1812.41-315.77,1621.19,481.33-92.54,385.74,420,399.76,229.32,785.35Z"/><path class="cls-2" d="M2020.75,774.76s-46.16-61.2,2.86-95.18c0,0,35.42-18.52,63.14-15.11,0,0-43.56,63.65-31.21,71S2099,661.07,2099,661.07s78.13-2.68,102.36,10.89c0,0-69.78,50.18-56,54.29s88.82-44.74,88.82-44.74,71.51,16.81,64.9,60.66-32.36,55.91-43.24,54.06-73.37-30.3-75.33-21.42,34.76,40.6,61.66,43.66c0,0-54.46,53-87.32,34.68s-34.14-44.22-54.64-55.18-38.54-12.06-30.43-1.69,45.71,22.33,56.45,44.43,20.67,37.19-14,29.73-90.06-36.65-90.73-66.17Z"/><path class="cls-2" d="M2263.45,741.14s-195.84-19.82-242.7,33.62c0,0-11.38,28.11-42.52,52.42l-5.38,12.25s36.26-33.75,48.57-35.16C2021.42,804.27,2006.73,733.53,2263.45,741.14Z"/><path class="cls-2" d="M1978.23,827.18s-44.08,28.53-50.48,84l7.6,1.16s17.06-56.73,42.79-77.73S1978.23,827.18,1978.23,827.18Z"/><path class="cls-3" d="M1794.27,628.46s-102.35-57.32-54.58-135.1c0,0,38.21-47.77,79.15-60.05,0,0-21.84,116,0,118.73s15-131,15-131,107.81-51.86,150.11-47.76c0,0-66.86,113.26-45,110.53s96.89-117.36,96.89-117.36,110.54-20.47,128.28,45-10.92,98.25-27.29,102.35-121.46,2.73-118.73,16.37,73.69,35.49,113.27,23.2c0,0-43.67,107.81-101,102.35s-75-40.94-110.54-43.67-61.41,6.83-43.66,16.38,77.78,3.13,106.44,27.49,51.86,39.38-1.36,50.3-148.75,4.09-167.86-36.85Z"/><path class="cls-2" d="M2113.61,432S1827,524.74,1794.27,628.46c0,0,1.37,46.4-27.29,99.62v20.47s30-69.6,46.4-79.15C1813.38,669.4,1749.24,579.33,2113.61,432Z"/><path class="cls-2" d="M1767,728.08s-44.2,67.12-19,148.81l11.37-3s-11-90,12.09-135.24S1767,728.08,1767,728.08Z"/><path class="cls-3" d="M1254.54,657.83s119.1-50.4,76.19-141.43c0,0-36.09-57-79.46-75.4,0,0,9.87,129.76-14.39,130.11s-.58-145.39-.58-145.39-111.85-69.89-158.71-70.53c0,0,59.55,132.23,36,126.59s-91.95-140.35-91.95-140.35-118.66-35.83-146,33.8.06,109,17.51,115.47,132.77,17.71,128.12,32.33-85.06,30-126.94,11.7c0,0,34.79,123.44,98.27,124.4s87.21-35.77,126.42-34.46,66.47,14.92,45.88,23.24-85.63-6-120,17.23-61.6,36.87-4.6,55.28,162.52,22.51,188.42-20Z"/><path class="cls-2" d="M928.4,403.78s302.81,136.43,326.14,254.05c0,0-7.12,50.69,17.83,112.48l-2.48,22.44s-24.47-79.91-41.25-92.37C1228.64,700.38,1309.84,609.45,928.4,403.78Z"/><path class="cls-2" d="M1272.37,770.31s40.3,78.91,2.79,165.38L1263.07,931s23-97.28,3.14-149.67S1272.37,770.31,1272.37,770.31Z"/><path class="cls-2" d="M1010.23,950.37c-21.05-30.37-23.4-58.64-23.4-58.64s58.24-41.82,23.91-85.8c0,0-26.48-26.39-52.18-31,0,0,21.2,69,8.12,72.11s-18.08-78.54-18.08-78.54-69-24.12-94.45-18.74c0,0,48.37,64.22,34.92,64.06s-66.88-64.65-66.88-64.65-68.54-4.87-74.83,36.13,13.35,58.93,23.58,60.29,74-6.65,73.23,1.83S801.84,874,777,869.21c0,0,33.9,62.49,68.34,55.25s42.78-30,64.15-34.09,37.76-.06,27.64,7-47,7.22-62.77,24-28.8,27.47,4.27,30.46,90.63-7.7,99.43-33.87c.38-1.14.75-2.23,1.1-3.27a13.28,13.28,0,0,1-1.1,3.27c6.36,2.81,17.17,18.39,24.81,30.42,1.13,2.06,2.86,4.9,5.4,8.74h0c1,1.74,1.89,3.17,2.48,4.17,14.61,27.23,14.12,77.14,14.12,77.14l7.11,1.08C1041.66,988.1,1010.23,950.37,1010.23,950.37Z"/><path class="cls-4" d="M621,251.39c-.57-3.15-8-36.87-60.13-31.12,0,0,26-.66,32,9.92,0,0-19.4-11.34-32.9-4.83s-18.22,32.52-17.12,40.69,12.78,33.32,22.09,34.25a27.82,27.82,0,0,0,10.88-1.57,123.13,123.13,0,0,0-5.17,13.46c-14.54,45.52,12.85,84,29.72,76.83,10.82-4.57,16.78,14.15,16.78,14.15l96.42-104.3S661.36,221.66,621,251.39Z"/><path class="cls-5" d="M746.56,1507.61l-23.45,8.73S621.26,1375.08,608.73,1250.8c-2.24-22.19-1.5-43.69,3.35-63.54,0,0-1-5.69-2.74-15.74-.81-4.69-1.8-10.34-2.93-16.81-3.31-19-7.87-44.93-13.08-74.49-12-68-27.51-155-39.57-218.89l6.32-2,68.36-22.06,14.13-44.87L693.48,779S704.85,801.21,715,906.3c1.88,13.78,3.58,29,4.87,45.46A899.66,899.66,0,0,1,715,1135.84q-3.49,27.39-8.94,56.49c-2.68,14.2-3.08,33.56-2,55.79C709.27,1349.71,746.56,1507.61,746.56,1507.61Z"/><path class="cls-6" d="M719.88,951.76,609.34,1171.52c-.81-4.69-1.8-10.34-2.93-16.81-3.31-19-7.87-44.93-13.08-74.49-12-68-27.51-155-39.57-218.89l6.32-2,68.36-22.06,14.13-44.87L693.48,779S704.85,801.21,715,906.3C716.89,920.08,718.59,935.28,719.88,951.76Z"/><path class="cls-5" d="M671.25,807.17l-2.56-21.94c-42.87,11.38-157.42-31.82-157.42-31.82s-41.53,36.51-36.08,124c2.67,42.71,7.53,224.21,12.6,277.92,1.84,19.47,3.45,33.32,4.1,38.85,0,0,0,0,0,0a7.67,7.67,0,0,1-1.25,4.76,253.31,253.31,0,0,0-18.74,39.41c-49.84,132.81,7.68,296.36,7.68,296.36l14.92-6s32.73-182,59.32-262.43c4.52-13.63,8.84-24.35,12.81-30.76,11.56-18.66,22.29-49.15,32-85.42,18.41-68.56,33.23-157.76,43.09-226.61C643.13,923.62,671.25,807.17,671.25,807.17Z"/><path class="cls-7" d="M740.37,631.28A31.72,31.72,0,0,0,743,633.8c36.64,34.14,86,64.33,112.39,71,17.37,4.45,55.66-1.5,87.45-8,21.19-4.18,39.64-8.8,47.24-10.61,2.43-.57,3.78-1,3.78-1l-3.32-21.45s-19-1.51-42.73-4.18c-33-3.88-74.79-9.83-85.5-16.15-24.84-14.77-68.43-76.67-103.4-115.6-1.83-2.12-3.65-4.16-5.45-6.16-1.32-1.46-2.64-2.89-3.94-4.3a4.85,4.85,0,0,0-1-1c-1.61-1.54-3-3-4.3-4.24-.05-.16-.28-.27-.5-.4-6.22-6.25-17.12-13.82-17.12-13.82-6.11-3.49-11.14-4.16-14.68-1.19a56.5,56.5,0,0,0-9,12.9q-1.44,2.65-2.79,5.83a13.71,13.71,0,0,0-1.47,3.62,74.36,74.36,0,0,0-4.74,29,91.85,91.85,0,0,0,5.76,28.68C705.72,593.92,721.16,613.09,740.37,631.28Z"/><path class="cls-7" d="M708.47,540.84c-12.43,8.11-27.9,14.65-47.2,18.54-72.36,14.58-98.2-47-107.37-89a61.74,61.74,0,0,1,24.56-6.79c5.22-.47,10.69-.72,15.23-.82,8.24-5.95,21-30.92,24.75-70.14l3.36,1L678,410.78s-3.1,17.94-4.85,34.92c-1.36,13.3-1.88,26,.56,29.21,4.39,1.08,7,1.78,7,1.78a.12.12,0,0,0,0,.06A365.48,365.48,0,0,1,708.47,540.84Z"/><path class="cls-8" d="M733.66,586.05c-.34,1.54-.74,3.05-1.19,4.6-12.7,42.47-23,212.24-23,212.24,6.73,21.22-116.64,25.57-184.67,15.77-24.74-3.56-42.16-9-43.36-16.16-12.17-27.44,17.62-78.69,34.82-104.74a66.2,66.2,0,0,0,10.92-38.83c-.52-13.46-1.67-26.53-3.07-38.78-2.64-23.09-6.16-43.25-8-57.52h0c3.58-3.55,7.07-6.86,10.31-10,4.95-4.84,9.29-9.32,12.34-13.67,3.34-4.74,5.21-9.36,4.79-14.22a71.27,71.27,0,0,0-1.89-11.06q-.64-2.59-1.43-5.18c-5.52-18.1-15.7-33.76-15.7-33.76C543,464,578.46,463.62,578.46,463.62s.24,1.95.69,5.11c1.73,12.73,6.58,45.36,11.55,50.94,6.22,7,104.33,27.13,107.75,16,3.36-11-16.91-57.14-17.66-58.89a.09.09,0,0,1,0-.06c31.43,7.47,45.07,15.92,45.69,16.41h0C709.37,508,742.61,545.35,733.66,586.05Z"/><path class="cls-9" d="M678,410.79s-3.11,17.92-4.85,34.92c-32-4.11-46-35.1-51.37-52Z"/><path class="cls-7" d="M687.13,428s-76.07-6.36-71.39-53.67-2-80,46.79-77.94,56.41,21,58.68,37.21S707,428.4,687.13,428Z"/><path class="cls-4" d="M721.59,307c-10.32-15.4-19.5-13.17-24.9-9.39-39.23-27-69.35,4.09-69.35,4.09-8.48,33.43-34.91,50.43-34.91,50.43s13,9.93,45.72,4.92c10-1.53,19.4-7.59,27.64-15.25A177.81,177.81,0,0,1,631.57,376c39.88-13.8,60.5-65.28,62.58-70.74,4.22,4.63,12.45,14.59,14.35,23.73,2.58,12.43,1.8,37.4,9.12,37.28C717.62,366.3,737.06,330.14,721.59,307Z"/><path class="cls-7" d="M1061,660.86c-7.61,7.25-15.3,25.38-38.73,25a340,340,0,0,0-41.84,2.75c-3.18.56-5,.78-5,.78l-.83-26.54a4.83,4.83,0,0,0,1.09-.1c5.67-.85,34.41-5.27,45.79-12.81,12.77-8.57,42.64-.63,42.64-.63S1068.66,653.75,1061,660.86Z"/><path class="cls-6" d="M566.37,1547H448.26s-2.83-18,3.34-31.66c5.91-13.1,15.17-19.06,12.95-34.91,7.51,7.72,19.74,16.38,36.81,14.08,2.1,3.39,13.51,21.54,20.5,26.56C529.57,1526.6,564,1524.62,566.37,1547Z"/><path class="cls-6" d="M820,1547H701.84s-4.41-18.84,3.34-31.66c6.87-11.34,4.24-17.8-.85-27.19a45.82,45.82,0,0,0,19.89,3.75c5.89-.34,12.11-3,17.57-6.18,5.08,5.8,26.85,30.46,33.65,35.35C783.16,1526.6,817.57,1524.62,820,1547Z"/><path class="cls-10" d="M669,400.6s1.06,6.27,16.48,6.28c0,0,12.94,0,13-6.79C698.44,400.09,686.24,394.47,669,400.6Z"/><path class="cls-8" d="M540.94,701.33c-4.67,29.59-26.07,89-16.12,117.33-24.74-3.56-42.16-9-43.36-16.16-12.17-27.44,17.62-78.69,34.82-104.74a66.2,66.2,0,0,0,10.92-38.83c-.52-13.46-1.67-26.53-3.07-38.78C524.13,620.15,545.91,669.88,540.94,701.33Z"/><path class="cls-8" d="M708.11,501.68c.83,26.31,19.85,98.51,24.36,89,5.15-10.88,25.13-52.19,34.51-53.72-.5-1.9-38.89-44.35-40.57-43.85C726.41,493.09,716,496.27,708.11,501.68Z"/><path class="cls-7" d="M527,874.76l-19.59,13s-5-6.2-12.81-16.11c-2.34-3-3.6-4.77-3.6-4.77-6.21-8-13.43-17.82-21.33-28.47l-.13-.12c-13.23-18.59-27.76-39.72-38.89-58.83-7.73-13.55-13.74-26.09-16.68-36a21,21,0,0,1-.71-3c-5.75-25,4.8-74.66,21.59-123.1,2.31-6.7,4.74-13.29,7.07-19.73,8.93-23.76,19-46.09,29.05-64.14,5.91-10.84,11.8-20.3,17.48-27.36a78,78,0,0,1,5.82-6.94q1.62-1.85,3.23-3.54c11.77,1,36.46,5.66,54.78,26.82-.31,1.12-.63,2.23-1,3.36-7.41,23.9-18.85,53.23-30.71,82-6.45,15.79-13.05,31.46-18.83,46.19-3.67,8.81-7,17.21-10,25C486.17,693.94,482,706.3,480.32,715c-1.13,5.61.48,16.19,3.51,29.19,5.2,22.66,15.11,53.17,24.31,79.07,3.76,10.81,7.47,20.87,10.56,29.21C523.66,865.94,527,874.76,527,874.76Z"/><path class="cls-8" d="M535.59,597.39c-19.57-29.54-75.66-42.24-75.66-42.24C491.58,454.72,574.67,464,574.67,464S544.45,568.51,535.59,597.39Z"/><path class="cls-7" d="M507.43,887.81s5.15,7.59,5.72,13.06,5.47,23.59,11.8,29.34,20.71,17.26,22.72,15.53,7.84-15.29,2.44-24.88c-2.44-4.33-5.75-16.4-10.11-19.32-5.3-3.55-13-26.78-13-26.78Z"/><path class="cls-7" d="M527.1,877.71s15.58,7.91,17.69,14.24,10.82,19.09,9.93,20.57-14.5-7-19.11-14.91S527.1,877.71,527.1,877.71Z"/><path class="cls-8" d="M897.89,804.12l570.59-341.61a99.55,99.55,0,0,1,102.22,0l570.59,341.61v556.76l-1243.4-62.35Z"/><rect class="cls-11" x="1004.92" y="557.43" width="1029.35" height="889.56"/><circle class="cls-12" cx="1046.92" cy="596.24" r="10.58" transform="translate(-148.48 446.03) rotate(-22.5)"/><path class="cls-12" d="M1981.05,596.24a10.58,10.58,0,1,1,10.58,10.59A10.58,10.58,0,0,1,1981.05,596.24Z"/><rect class="cls-12" x="1046.92" y="595.09" width="944.71" height="2.3"/><rect class="cls-12" x="1045.77" y="592.04" width="2.3" height="944.71"/><rect class="cls-12" x="1990.85" y="592.04" width="2.3" height="944.71"/><polygon class="cls-13" points="2141.29 802.58 2141.29 1546.97 897.89 1546.97 897.89 802.58 1519.59 1174.78 2141.29 802.58"/><path class="cls-8" d="M897.89,1547l569.51-408.31a89.56,89.56,0,0,1,104.38,0L2141.29,1547Z"/><path class="cls-12" d="M1709.39,680.67h-375.3a9.94,9.94,0,0,1-9.91-9.91h0a9.94,9.94,0,0,1,9.91-9.91h375.3a9.94,9.94,0,0,1,9.91,9.91h0A9.94,9.94,0,0,1,1709.39,680.67Z"/><path class="cls-12" d="M1806.06,720.43H1237.41a9.93,9.93,0,0,1-9.9-9.91h0a9.93,9.93,0,0,1,9.9-9.91h568.65a9.94,9.94,0,0,1,9.91,9.91h0A9.94,9.94,0,0,1,1806.06,720.43Z"/><path class="cls-12" d="M1732.32,843.73H1320.88a7.19,7.19,0,0,1-7.17-7.17h0a7.2,7.2,0,0,1,7.17-7.17h411.44a7.19,7.19,0,0,1,7.16,7.17h0A7.18,7.18,0,0,1,1732.32,843.73Z"/><path class="cls-12" d="M1362.2,881.17h-116A7.19,7.19,0,0,1,1239,874h0a7.19,7.19,0,0,1,7.17-7.16h116a7.19,7.19,0,0,1,7.17,7.16h0A7.19,7.19,0,0,1,1362.2,881.17Z"/><path class="cls-12" d="M1537.15,881.17H1397a7.19,7.19,0,0,1-7.17-7.17h0a7.19,7.19,0,0,1,7.17-7.16h140.15a7.18,7.18,0,0,1,7.17,7.16h0A7.18,7.18,0,0,1,1537.15,881.17Z"/><path class="cls-12" d="M1807,881.17H1564.72a7.19,7.19,0,0,1-7.17-7.17h0a7.19,7.19,0,0,1,7.17-7.16H1807a7.19,7.19,0,0,1,7.17,7.16h0A7.19,7.19,0,0,1,1807,881.17Z"/><path class="cls-12" d="M1538.08,924.71H1312.72a7.2,7.2,0,0,1-7.17-7.17h0a7.2,7.2,0,0,1,7.17-7.17h225.36a7.2,7.2,0,0,1,7.17,7.17h0A7.2,7.2,0,0,1,1538.08,924.71Z"/><path class="cls-12" d="M1740.48,924.71H1563a7.2,7.2,0,0,1-7.17-7.17h0a7.2,7.2,0,0,1,7.17-7.17h177.5a7.2,7.2,0,0,1,7.17,7.17h0A7.2,7.2,0,0,1,1740.48,924.71Z"/><path class="cls-14" d="M1601.38,1013.22a285.7,285.7,0,0,1-43.33,29.2c1.29-4.05,2.37-8.26,2.17-12-.27-5.15-4.39-7.42-8.51-9.56-1-.52-2-1.09-2.92-1.65a5.23,5.23,0,0,0,1.36-6.11c-1.73-3.91-6.61-3.28-8.27.34a6.78,6.78,0,0,0-.56,2,5.07,5.07,0,0,1-1.61-1.26q3.78-7,7.06-14.35a2.68,2.68,0,0,0-1-3.06,8.38,8.38,0,0,0-11.47,1.59c-3.45,4.06-2.58,10.26-.93,14.88.11.32.24.64.38,1q-4.8,8.67-10.41,16.85l-1-1a22.7,22.7,0,0,1-2.91-3.5,50.78,50.78,0,0,0,3.21-14c.18-2.17-2-3.23-3.81-2.56a11.27,11.27,0,0,0-7.07,12.2,15.26,15.26,0,0,0,1.63,5.12,46.51,46.51,0,0,1-4,7.06,2.47,2.47,0,0,0,.91,3.66c-1.65,5.48-3.86,11.09-7.64,15-3.09,3.23-8.85,5.67-12.61,1.84-2.38-2.42-2.69-6.47-3-9.67a175.16,175.16,0,0,1-1.11-24,36.9,36.9,0,0,1,1.82-11.13c.8-2.21,1.92-5.55,3-1.75.53,1.87-.2,4.76-.39,6.66-.34,3.39,4.93,3.78,5.26.41.4-4,2.18-12.32-2.31-14.82-3.73-2.06-7.17.9-8.89,4-6.22,11.16-3.74,26.48-2.81,38.6.75,9.68,4.37,21.54,16.72,18.46,11.61-2.89,15.89-17.54,18.56-27.62a2.67,2.67,0,0,0-.08-1.69l.14-.25,1.45,1.45c.69.61,1.34,1.25,2,1.91-1.22,1.7-2.46,3.37-3.73,5a2.69,2.69,0,0,0,.2,3.22c3.92,4.71,10.94,1.22,10.81-4.57a8.59,8.59,0,0,0-.89-3.62q5.52-7.92,10.29-16.3a8.27,8.27,0,0,0,6.33,2.54,4.93,4.93,0,0,0,.54,0,20,20,0,0,0,4.6,3.5c1.49.84,3.23,1.36,4.57,2.47,2.51,2,1.77,4.38,1.21,7.3a113.07,113.07,0,0,1-3.06,11.38c-5.31,3-10.55,6.93-12.34,13-1.63,5.57-.18,11.45,4.6,14.91a2.66,2.66,0,0,0,4-1.32c3-7.37,5.71-14.85,8-22.47.08-.24.15-.48.23-.73,4.7-2.66,9.61-5,14.24-7.76a270.49,270.49,0,0,0,35-24.73C1607.48,1015,1604,1011.05,1601.38,1013.22Zm-64.13-7c0-2.11,1.07-6,3.51-5.93-1.1,2.38-2.24,4.73-3.42,7.07C1537.3,1007,1537.26,1006.56,1537.25,1006.19Zm6.71,61c-2.22-4.15,1-9.29,4.59-12.68C1547.13,1058.76,1545.59,1063,1544,1067.17Z"/><g class="cls-15"><polygon class="cls-16" points="1497.37 192.12 1550.97 310.38 1353.43 399.91 1299.83 281.65 1425.4 296.01 1497.37 192.12"/><path class="cls-17" d="M1299.83,281.65l197.54-89.53-59.06,99.54a22,22,0,0,1-22.68,10.41Z"/></g><g class="cls-15"><polygon class="cls-16" points="336.03 964.33 364.23 1039.94 237.92 1087.04 209.72 1011.42 286.97 1025.68 336.03 964.33"/><path class="cls-17" d="M209.72,1011.42,336,964.33l-40.87,59.2a13.62,13.62,0,0,1-14.5,5.49Z"/></g><g class="cls-15"><polygon class="cls-16" points="2499.01 514.27 2459.39 662.75 2211.38 596.56 2251 448.08 2355.19 555.42 2499.01 514.27"/><path class="cls-17" d="M2251,448.08l248,66.19-128.73,46.84a26,26,0,0,1-28.57-7.48Z"/></g><path class="cls-18" d="M281.61,1298.66h0c-6,0-11.81-.1-17.28-.25a1.15,1.15,0,0,1-1.12-1.18,1.14,1.14,0,0,1,1.18-1.12c5.46.15,11.26.23,17.23.25a1.15,1.15,0,0,1,0,2.3Zm17.28-.13a1.15,1.15,0,0,1,0-2.3c5.53-.09,11.34-.24,17.26-.43a1.11,1.11,0,0,1,1.19,1.11,1.16,1.16,0,0,1-1.11,1.19c-5.94.19-11.76.34-17.3.43Zm-51.79-.86H247c-6.08-.36-11.89-.84-17.25-1.41A1.15,1.15,0,0,1,230,1294c5.33.57,11.1,1,17.15,1.41a1.15,1.15,0,0,1-.07,2.3Zm86.34-.26a1.15,1.15,0,0,1-.05-2.3c5.54-.26,11.34-.56,17.25-.9a1.15,1.15,0,0,1,.13,2.3c-5.91.34-11.73.64-17.27.9Zm34.51-2a1.15,1.15,0,0,1-.07-2.29q8.49-.59,17.22-1.24a1.15,1.15,0,1,1,.18,2.29q-8.73.66-17.25,1.24Zm-155.14-1.55-.2,0a135.43,135.43,0,0,1-16.92-4,1.15,1.15,0,0,1,.69-2.2,133.41,133.41,0,0,0,16.63,4,1.15,1.15,0,0,1-.2,2.29Zm189.61-1.07a1.15,1.15,0,0,1-.1-2.29q8.52-.72,17.21-1.51a1.15,1.15,0,0,1,.21,2.29q-8.7.8-17.23,1.51Zm34.42-3.12a1.15,1.15,0,0,1-.11-2.3q8.52-.83,17.18-1.72a1.18,1.18,0,0,1,1.27,1,1.15,1.15,0,0,1-1,1.26q-8.67.9-17.2,1.72Zm34.37-3.53a1.15,1.15,0,0,1-.12-2.3q8.54-.91,17.17-1.89a1.15,1.15,0,0,1,.26,2.29q-8.64,1-17.18,1.89Zm-290.72-3.6a1.13,1.13,0,0,1-.68-.22,21.93,21.93,0,0,1-7.15-8.17,48.57,48.57,0,0,1-2.56-6.5,1.15,1.15,0,1,1,2.2-.69,47.43,47.43,0,0,0,2.44,6.21,19.6,19.6,0,0,0,6.43,7.29,1.16,1.16,0,0,1,.25,1.61A1.18,1.18,0,0,1,180.49,1282.55Zm325.06-.27a1.15,1.15,0,0,1-.13-2.29q8.55-1,17.15-2a1.15,1.15,0,0,1,.28,2.29l-17.16,2Zm34.31-4.16a1.15,1.15,0,0,1-.14-2.29q8.52-1.07,17.08-2.17a1.15,1.15,0,0,1,.29,2.28q-8.57,1.11-17.09,2.17Zm34.19-4.4a1.15,1.15,0,0,1-.15-2.29l17.13-2.29a1.14,1.14,0,0,1,1.29,1,1.15,1.15,0,0,1-1,1.3l-17.14,2.29Zm34.29-4.64a1.15,1.15,0,0,1-.16-2.29l17.11-2.39a1.15,1.15,0,1,1,.32,2.28l-17.11,2.39Zm34.22-4.83a1.15,1.15,0,0,1-.17-2.29l17.1-2.48a1.15,1.15,0,1,1,.33,2.27q-8.52,1.26-17.1,2.49Zm34.19-5a1.15,1.15,0,0,1-.17-2.29l17.08-2.56a1.15,1.15,0,1,1,.35,2.27q-8.52,1.29-17.09,2.57Zm34.16-5.17a1.16,1.16,0,0,1-1.13-1,1.14,1.14,0,0,1,1-1.31l17.07-2.64a1.15,1.15,0,1,1,.36,2.27l-17.08,2.64Zm-540.84-2.62a.85.85,0,0,1-.23,0,1.14,1.14,0,0,1-.9-1.35,36.2,36.2,0,0,1,7.71-15.71,1.14,1.14,0,1,1,1.78,1.44,34.16,34.16,0,0,0-7.24,14.72A1.15,1.15,0,0,1,170.07,1251.45Zm575-2.71a1.15,1.15,0,0,1-.18-2.28l17.07-2.72a1.15,1.15,0,0,1,.36,2.27q-8.46,1.37-17.07,2.72Zm34.13-5.46A1.15,1.15,0,0,1,779,1241l17.06-2.78a1.15,1.15,0,1,1,.37,2.27l-17.06,2.78Zm34.1-5.6a1.15,1.15,0,0,1-.18-2.28l17-2.85a1.15,1.15,0,0,1,1.33.94,1.16,1.16,0,0,1-1,1.33l-17,2.85Zm34.1-5.72a1.15,1.15,0,0,1-.2-2.29l17-2.9a1.15,1.15,0,1,1,.39,2.26l-17,2.91Zm34.07-5.85a1.15,1.15,0,0,1-.19-2.28l17-3a1.15,1.15,0,1,1,.39,2.26c-5.53,1-11.22,2-17,3Zm-691.17-1.39a1.15,1.15,0,0,1-.66-2.09,111.49,111.49,0,0,1,15.09-8.74,1.15,1.15,0,0,1,1,2.07,111.5,111.5,0,0,0-14.79,8.55A1.14,1.14,0,0,1,190.29,1224.72Zm725.24-4.58a1.15,1.15,0,0,1-.2-2.28l17-3a1.15,1.15,0,0,1,1.34.93,1.16,1.16,0,0,1-.93,1.34l-17,3A.71.71,0,0,1,915.53,1220.14Zm34.05-6.09a1.15,1.15,0,0,1-.2-2.28l17-3.1a1.15,1.15,0,0,1,.41,2.27q-8,1.45-17,3.09A.75.75,0,0,1,949.58,1214.05Zm-728.45-4.73a1.15,1.15,0,0,1-.4-2.23c5.09-1.9,10.64-3.75,16.47-5.49a1.15,1.15,0,1,1,.66,2.2c-5.78,1.73-11.28,3.56-16.33,5.44A1.14,1.14,0,0,1,221.13,1209.32Zm762.52-1.49a1.16,1.16,0,0,1-.21-2.29l17-3.17a1.15,1.15,0,1,1,.43,2.26c-4.85.91-10.56,2-17,3.18Zm34.11-6.4a1.15,1.15,0,0,1-.21-2.28l2-.38a1.18,1.18,0,0,1,1.41,1.12c0,.95-.11,1-2.95,1.52Zm-763.53-2.1a1.15,1.15,0,0,1-.27-2.26c5.38-1.32,11.07-2.6,16.93-3.8a1.15,1.15,0,1,1,.46,2.25c-5.83,1.2-11.49,2.47-16.84,3.78Zm33.89-7a1.15,1.15,0,0,1-.19-2.29c5.52-1,11.28-1.86,17.12-2.7a1.15,1.15,0,1,1,.33,2.27c-5.82.85-11.56,1.75-17.06,2.7Zm34.25-5a1.15,1.15,0,0,1-.13-2.29c5.67-.69,11.46-1.33,17.23-1.9a1.16,1.16,0,0,1,1.25,1,1.14,1.14,0,0,1-1,1.25c-5.74.57-11.52,1.21-17.18,1.89Zm34.46-3.41a1.15,1.15,0,0,1-.09-2.3c10.69-.82,17.35-1.1,17.41-1.1a1.13,1.13,0,0,1,1.2,1.1,1.16,1.16,0,0,1-1.1,1.2c-.07,0-6.68.28-17.33,1.1Z"/><polygon class="cls-18" points="1056.23 1262.04 1197.97 1181.71 1068.66 1189.35 1078.64 1211.19 1051.93 1240.78 1056.23 1262.04"/><polygon class="cls-10" points="1197.97 1181.71 1049.44 1208.93 941.25 1284.06 1197.97 1181.71"/><polygon class="cls-10" points="1068.66 1189.35 1197.97 1181.71 1062.71 1142.07 1068.66 1189.35"/><polygon class="cls-18" points="1822.96 206.58 1983.88 232.05 1877.97 157.47 1872.17 180.77 1832.84 187.28 1822.96 206.58"/><polygon class="cls-10" points="1983.88 232.05 1850.73 160.81 1719.3 152.18 1983.88 232.05"/><polygon class="cls-10" points="1877.97 157.47 1983.88 232.05 1902.77 116.78 1877.97 157.47"/><g id="girl_2" data-name="girl 2"><path class="cls-6" d="M2310.24,858.59s-32.81,2.28-57,61.36c-24.43,59.6,30.21,59,11.8,97s26.5,60.62,40.13,91.71,82.35,106.08,87.79,140.29,66.53-35.57,66.53-35.57,62.1-66.24,39.83-104.72c-36.7-63.43-4.91-77.21-6.06-112.63S2424.84,821,2310.24,858.59Z"/><path class="cls-19" d="M2292.43,1070.57s-127,55.37-151.16,54.32-172.82-45.29-172.82-45.29l3.78,25.58s114.75,66,154.87,69.74c39.49,3.68,174.55-35.45,187.58-43.71S2330.32,1078.94,2292.43,1070.57Z"/><path class="cls-7" d="M2282.18,1131.28c11.67,8.1,26.31,14.78,44.69,19,68.89,15.91,95.29-42.31,105.2-82.28a59.28,59.28,0,0,0-23.34-7.17c-5-.58-10.21-1-14.55-1.19-7.74-5.92-19.26-30.17-21.81-67.82l-3.24.87-54.29,14.86s2.48,17.26,3.7,33.57c.94,12.76,2.6,20.17.18,23.16-4.23.91-8.28,6.3-8.28,6.3l0,.06A348.81,348.81,0,0,0,2282.18,1131.28Z"/><path class="cls-9" d="M2314.83,1007.58s2.5,17.24,3.71,33.57c30.76-3.08,45-32.37,50.59-48.43Z"/><path class="cls-7" d="M2305.65,1023.78s73-4,69.8-49.46,4.05-76.54-42.7-75.89-54.57,18.63-57.19,34.05S2286.58,1023.65,2305.65,1023.78Z"/><path class="cls-20" d="M2452.87,1279.71c6.59-33.7,28.09-168.36,6.59-211.69-7.72-15.57-38-17-71.25-15.6-10.35,6.67-49.76,31.91-65.95,28.76l-.9-.22c-7.63-1.9-9-12-2.64-16.66,0,0-18,3.2-38.41,7-11.55,2.17-42.69,18.29-42.69,18.29s15.68,28.33,38.81,38.11c-3.93,35.18,1.91,50.7,38.41,132,30.84,68.68-4.16,130.52-4.16,130.52s181.53,146,182.55,71.64C2494,1405.91,2444.44,1322.79,2452.87,1279.71Z"/><path class="cls-6" d="M2301.68,1548.93a33.73,33.73,0,0,1-24.28-14.78c-.88-1.31-1.81-2.72-2.81-4.23-20.66-31.28-28.7-127.08-75.18-229.14-11.32-24.84-52-29.31-63-57.4,0,0-27.28-91,52.2-93.73s212.85,253.31,215,280.16C2405.57,1455.82,2456.08,1566.35,2301.68,1548.93Z"/><path class="cls-21" d="M1985.79,1546.84h113.12s4.23-18-3.2-30.32c-6.57-10.87-4.05-17.06.82-26a44.08,44.08,0,0,1-19.06,3.59c-5.63-.33-11.59-2.89-16.82-5.92-4.87,5.55-25.72,29.18-32.23,33.86C2021,1527.32,1988.06,1525.43,1985.79,1546.84Z"/><path class="cls-22" d="M2440.94,1103.32s14.72,134-80.76,162-122.59-123.25-45.5-134.13S2440.94,1103.32,2440.94,1103.32Z"/><path class="cls-6" d="M2133.78,1176c-6.81,51.06-33.41,212.25-80.34,290.88-15.12,25.36,38.12,39.57,38.41,39.49,7.14-1.87,19-13.25,24.52-18.19,38.09-34.33,115.42-131.55,115.42-209.49,0-38,.67-110.58-27-129C2187.81,1138.27,2136.49,1155.69,2133.78,1176Z"/><path class="cls-5" d="M2369.13,1546.84s-4.19-5.84-11.5-16.92c-8.7-13.17-18.33-39.1-30-72.34-12.27-34.9-26.82-77.83-45-122.5-5.61-13.78-11.58-27.74-17.92-41.67-11.32-24.85-42.46-21.42-53.54-49.51,0,0-43.24-97.37,36.24-100.05s230.5,260.47,239.18,286C2496.07,1457.71,2542.42,1573.57,2369.13,1546.84Z"/><path class="cls-6" d="M2068.83,1546.84H2182s4.23-18-3.2-30.32c-6.57-10.87-4.05-17.06.82-26a44.08,44.08,0,0,1-19.06,3.59c-5.63-.33-11.59-2.89-16.82-5.92-4.87,5.55-25.72,29.18-32.23,33.86C2104.07,1527.32,2071.1,1525.43,2068.83,1546.84Z"/><path class="cls-23" d="M2327.62,1457.58c-12.27-34.9-26.82-77.83-45-122.5,4.75-33.84,15-63.44,32.23-75.38C2314.84,1259.7,2356.64,1389.21,2327.62,1457.58Z"/><path class="cls-5" d="M2199.81,1172.35c-6.81,51.07-16.4,215.87-63.33,294.5-15.12,25.36,38.12,39.57,38.41,39.49,7.14-1.87,19-13.25,24.52-18.19,38.09-34.33,115.42-131.55,115.42-209.49,0-38-44.6-107.53-72.23-126C2225.58,1141.32,2202.52,1152.07,2199.81,1172.35Z"/><path class="cls-24" d="M2059.75,1038.42s-5.79-14.72-16.34-13.76-106.33,13.76-106.33,13.76,11.15,2.67,15.35,10l44.19,130.21H2110Z"/><path class="cls-25" d="M2432.07,1068s-160.56,59.13-184.68,57.92c-15.6-.78-145.21-46.34-145.21-46.34l-11.63,22s126.15,81.08,160.83,80.68c68.47-.79,184-42.82,197-51.08S2470,1076.39,2432.07,1068Z"/><path class="cls-25" d="M2102.18,1079.6s-11.63-17.91-23.22-18.43-31.59,7.89-38.44,9.21-26.33,7.64-20.54,17.12,32.65,11.58,44.24,9.48,26.33,4.63,26.33,4.63Z"/><path class="cls-25" d="M2082.12,1061.72s-18.43-8.45-23.69-10-4.22,0-2.64,5,11.06,9.76,11.06,11.32S2082.12,1061.72,2082.12,1061.72Z"/><path class="cls-10" d="M2292,997.65s6.9-2.73,26.32-1.15c0,0-1,7.57-15.35,8.32C2294.84,1005.25,2292,997.65,2292,997.65Z"/><path class="cls-26" d="M2349.35,1097.18s14.36,45.46,63.68,55.81c0,0,81.44-25.09,40.89-80.58C2453.92,1072.41,2413.83,1042.62,2349.35,1097.18Z"/><path class="cls-10" d="M1937.08,1038.42s-10.65,4.07-2.59,17.88L2038,1042.49s-3.59-16,4.54-17.75Z"/><path class="cls-19" d="M1974.18,1072.41c2.46-9.84,2.31-12.22-3.26-18.23-3.67-4-9.3,5.87-12.22,11.82-1.06-2.63-2.88-6.9-3.5-7.11-.9-.31,1.24,13.23,1.24,13.23h0a11.89,11.89,0,0,0-.06,1.69h0s-4.49,19.9,15.08,30.66l-3.73-11C1970,1093.11,1971.69,1082.41,1974.18,1072.41Z"/><path class="cls-6" d="M2302.88,908.47s15.39-5.39,22.84,10.33,9.82,53.31,39.71,56.38,31-63.66,31-63.66L2321.67,882l-39.49,24.93Z"/><path class="cls-6" d="M2302.88,908.47s-16.86.36-20.7,14.55,2.16,40.66-7.18,42.57-17.8-44.1.24-59.06S2302.88,908.47,2302.88,908.47Z"/></g><path class="cls-7" d="M980.12,662.08s16.87-6.39,18.78-10.8,7.48-6.33,14.2-9.4,10.73-8.63,11.69-7.86,1.15,4.6-1.53,7.48-14.06,23-18.34,25.31S980.12,662.08,980.12,662.08Z"/><path class="cls-2" d="M2730.43,1546H2622c-5.81-4.93,4-16.12,14.29-16.87,4.46-.34,10.11.59,16.55,1.95,1.5-19.81,10-108.9,42.13-105.32,36.11,4,0,39.23-10.21,60.09-7.56,15.44-15.54,37.59-19.18,48.05,2.93.63,6,1.26,9.07,1.83,4.78-14.7,22.59-64.13,45.23-61.25,26.59,3.38,15.9,23.19-2.94,35-13.83,8.65-30.8,20.94-38.87,26.88a114.65,114.65,0,0,0,21.2,1.7C2717.85,1537.6,2726.91,1543.08,2730.43,1546Z"/><path class="cls-2" d="M300.45,1548.23S259.23,1435,230.3,1444.69,300.45,1548.23,300.45,1548.23Z"/><path class="cls-2" d="M284.66,1548.23c-3.5,0-69.27-68.26-73.66-50.39S284.66,1548.23,284.66,1548.23Z"/><path class="cls-2" d="M354.82,1548.23s-27.2-25-61.64-18.45-49.15,13.6-70.78,8.68-32.68,9.77-32.68,9.77Z"/><rect class="cls-27" y="1546.98" width="2892.76" height="7.67" rx="3.28"/><rect class="cls-11" x="958.1" y="1401.28" width="257.56" height="101.75" rx="21.66"/><path class="cls-12" d="M1150.42,1426.58H989a3.29,3.29,0,0,1-3.27-3.28h0A3.28,3.28,0,0,1,989,1420h161.38a3.29,3.29,0,0,1,3.28,3.27h0A3.29,3.29,0,0,1,1150.42,1426.58Z"/><path class="cls-12" d="M1017.66,1440.71H989a3.28,3.28,0,0,1-3.27-3.28h0a3.28,3.28,0,0,1,3.27-3.27h28.62a3.29,3.29,0,0,1,3.28,3.27h0A3.29,3.29,0,0,1,1017.66,1440.71Z"/><path class="cls-12" d="M1107.82,1440.71H1029a3.28,3.28,0,0,1-3.28-3.28h0a3.28,3.28,0,0,1,3.28-3.27h78.84a3.29,3.29,0,0,1,3.28,3.27h0A3.29,3.29,0,0,1,1107.82,1440.71Z"/><path class="cls-12" d="M1150.42,1466.88H989a3.28,3.28,0,0,1-3.27-3.28h0a3.28,3.28,0,0,1,3.27-3.27h161.38a3.29,3.29,0,0,1,3.28,3.27h0A3.29,3.29,0,0,1,1150.42,1466.88Z"/><path class="cls-12" d="M1047.61,1481H989a3.28,3.28,0,0,1-3.27-3.28h0a3.28,3.28,0,0,1,3.27-3.27h58.57a3.28,3.28,0,0,1,3.28,3.27h0A3.28,3.28,0,0,1,1047.61,1481Z"/><path class="cls-12" d="M1118.88,1481h-58.57a3.29,3.29,0,0,1-3.28-3.28h0a3.29,3.29,0,0,1,3.28-3.27h58.57a3.29,3.29,0,0,1,3.28,3.27h0A3.29,3.29,0,0,1,1118.88,1481Z"/></g></g></svg>