<svg xmlns="http://www.w3.org/2000/svg" viewBox="0 0 776.83 744.12"><defs><style>.cls-1{fill:#d12f26;}.cls-2{font-size:100px;font-family:Impact;}.cls-2,.cls-3{fill:#fff;}</style></defs><title>noresult</title><g id="Calque_2" data-name="Calque 2"><g id="Layer_1" data-name="Layer 1"><path class="cls-1" d="M226.39,15.91c77-23.87,167.83-22.32,242,14.47C507.6,49.81,541.11,79.64,564,117c23.82,39,29.44,88.64,63,121.6,15.39,15.13,35.09,24.93,52.87,37.16,75.33,51.84,113,152.64,90.62,241.31C698.56,802.26,323.9,789,131.75,640.69-73.65,482.16-36.47,97.36,226.39,15.91Z"/><text class="cls-2" transform="translate(312.23 336.7)">No <tspan x="-101.98" y="120">Results</tspan></text><path class="cls-3" d="M648.19,463.72c-.09-.26-.16-.53-.26-.78-4.65-11.86-18.24-17.07-29.21-10-10.72,6.94-11.08,21.7-1.83,30.1a17.12,17.12,0,0,0,14.7,4.6,46.55,46.55,0,0,1-5.3,9.21c-5.57,7.54,7.05,14.8,12.57,7.35S649,486.39,649.7,476.3c.23-.27.47-.56.69-.84C653.78,471.22,651.68,465.92,648.19,463.72Zm-21.25,8.86a4.5,4.5,0,0,1,2.48-8.35c3.73-.12,5.18,3.15,5.58,6.63C632.5,473.05,629.61,474.45,626.94,472.58Z"/><path class="cls-3" d="M607.23,463.72c-.09-.26-.16-.53-.26-.78-4.65-11.86-18.23-17.07-29.2-10-10.73,6.94-11.08,21.7-1.84,30.1a17.14,17.14,0,0,0,14.71,4.6,47,47,0,0,1-5.3,9.21c-5.57,7.54,7,14.8,12.56,7.35s10.1-17.85,10.84-27.94c.24-.27.47-.56.7-.84C612.82,471.22,610.72,465.92,607.23,463.72ZM586,472.58a4.5,4.5,0,0,1,2.48-8.35c3.73-.12,5.17,3.15,5.57,6.63C591.54,473.05,588.66,474.45,586,472.58Z"/><path class="cls-3" d="M121.19,242.06c-7.32-6.65-15.38-8.49-23.22-7.27a74.21,74.21,0,0,1,8.36-14.54c8.8-11.9-11.13-23.37-19.83-11.6s-16,28.18-17.12,44.11c-.37.44-.74.88-1.09,1.32-5.35,6.7-2,15.06,3.48,18.55.14.41.25.82.4,1.22,7.35,18.73,28.79,26.95,46.12,15.73C135.22,278.62,135.78,255.32,121.19,242.06ZM101.4,271.82c-5.9.19-8.18-5-8.81-10.47,4-3.46,8.51-5.66,12.72-2.71C111.45,262.94,108.83,271.59,101.4,271.82Z"/><path class="cls-3" d="M185.85,242.06c-7.31-6.65-15.37-8.49-23.22-7.27A74.25,74.25,0,0,1,171,220.25c8.79-11.9-11.14-23.37-19.84-11.6S135.21,236.83,134,252.76c-.37.44-.74.88-1.09,1.32-5.35,6.7-2,15.06,3.48,18.55.14.41.25.82.41,1.22,7.34,18.73,28.79,26.95,46.11,15.73C199.88,278.62,200.44,255.32,185.85,242.06Zm-19.79,29.76c-5.9.19-8.18-5-8.81-10.47,3.95-3.46,8.51-5.66,12.73-2.71C176.12,262.94,173.49,271.59,166.06,271.82Z"/></g></g></svg>