<?xml version="1.0" encoding="utf-8"?>
<!-- Generator: Adobe Illustrator 23.0.5, SVG Export Plug-In . SVG Version: 6.00 Build 0)  -->
<svg version="1.1" id="Icons" xmlns="http://www.w3.org/2000/svg" xmlns:xlink="http://www.w3.org/1999/xlink" x="0px" y="0px"
	 viewBox="0 0 32 32" style="enable-background:new 0 0 32 32;" xml:space="preserve">
<style type="text/css">
	.st0{fill:#D3D4ED;}
</style>
<path class="st0" d="M29.5,13.4c0.3-0.2,0.5-0.5,0.5-0.9V10c0-1.1-0.9-2-2-2h-6.3c-0.4,0-0.7,0.2-0.9,0.5c-0.4,0.6-1.3,0.6-1.7,0
	C19,8.2,18.6,8,18.3,8H4c-1.1,0-2,0.9-2,2v2.6c0,0.4,0.2,0.7,0.5,0.9C3.4,14,4,14.9,4,16s-0.6,2-1.5,2.6C2.2,18.8,2,19.1,2,19.4V22
	c0,1.1,0.9,2,2,2h14.3c0.4,0,0.7-0.2,0.9-0.5c0.4-0.6,1.3-0.6,1.7,0c0.2,0.3,0.5,0.5,0.9,0.5H28c1.1,0,2-0.9,2-2v-2.6
	c0-0.4-0.2-0.7-0.5-0.9C28.6,18,28,17.1,28,16S28.6,14,29.5,13.4z M8,15v-3c0-0.6,0.4-1,1-1s1,0.4,1,1v3c0,0.6-0.4,1-1,1
	S8,15.6,8,15z M10,20c-0.2,0-0.4-0.1-0.6-0.2c-0.5-0.3-0.6-0.9-0.3-1.4l4-6c0.3-0.5,0.9-0.6,1.4-0.3s0.6,0.9,0.3,1.4l-4,6
	C10.6,19.8,10.3,20,10,20z M16,20c0,0.6-0.4,1-1,1s-1-0.4-1-1v-3c0-0.6,0.4-1,1-1s1,0.4,1,1V20z M21,19c0,0.6-0.4,1-1,1s-1-0.4-1-1
	v-1c0-0.6,0.4-1,1-1s1,0.4,1,1V19z M21,14c0,0.6-0.4,1-1,1s-1-0.4-1-1v-1c0-0.6,0.4-1,1-1s1,0.4,1,1V14z"/>
</svg>
