<?xml version="1.0" encoding="utf-8"?>
<!-- Generator: Adobe Illustrator 23.0.5, SVG Export Plug-In . SVG Version: 6.00 Build 0)  -->
<svg version="1.1" id="Calque_1" xmlns="http://www.w3.org/2000/svg" xmlns:xlink="http://www.w3.org/1999/xlink" x="0px" y="0px"
	 viewBox="0 0 46 36" style="enable-background:new 0 0 46 36;" xml:space="preserve">
<style type="text/css">
	.st0{fill:#D3D4ED;}
</style>
<title>18 Sound waves</title>
<g>
	<path class="st0" d="M3,13L3,13c1.7,0,3,1.3,3,3v4c0,1.7-1.3,3-3,3l0,0c-1.7,0-3-1.3-3-3v-4C0,14.3,1.3,13,3,13z"/>
	<path class="st0" d="M13,0L13,0c1.7,0,3,1.3,3,3v30c0,1.7-1.3,3-3,3l0,0c-1.7,0-3-1.3-3-3V3C10,1.3,11.3,0,13,0z"/>
	<path class="st0" d="M23,9L23,9c1.7,0,3,1.3,3,3v12c0,1.7-1.3,3-3,3l0,0c-1.7,0-3-1.3-3-3V12C20,10.3,21.3,9,23,9z"/>
	<path class="st0" d="M33,6L33,6c1.7,0,3,1.3,3,3v18c0,1.7-1.3,3-3,3l0,0c-1.7,0-3-1.3-3-3V9C30,7.3,31.3,6,33,6z"/>
	<path class="st0" d="M43,13L43,13c1.7,0,3,1.3,3,3v4c0,1.7-1.3,3-3,3l0,0c-1.7,0-3-1.3-3-3v-4C40,14.3,41.3,13,43,13z"/>
</g>
</svg>
