<svg id="Calque_1" data-name="Calque 1" xmlns="http://www.w3.org/2000/svg" viewBox="0 0 402 243"><defs><style>.cls-1{fill:#3c3c3b;}.cls-2{fill:#d22f26;}.cls-3{fill:#fff;}</style></defs><path class="cls-1" d="M35.19,174c-1.23-4.76-3.24-9.44-10-9.44-5.62,0-7.56,4.11-7.56,7.85,0,5,3.17,7.49,9.14,10.59,8.64,4.46,12.39,7.77,12.39,14.61,0,7.56-6.55,13.32-15.84,13.32a30.1,30.1,0,0,1-11-2.37,96.59,96.59,0,0,1-1.94-10.8l2.23-.58C14,202,17.19,208.22,24.67,208.22A7.92,7.92,0,0,0,33,199.94c0-5.54-3-7.78-9.29-11.23-7.56-4.11-11.81-7.56-11.81-14.26C11.93,168,17.26,162,26.76,162a45.88,45.88,0,0,1,9.51,1.37c.29,2.59.57,5.47,1.15,10.15Z"/><path class="cls-1" d="M83.14,174.31a27.33,27.33,0,0,0-2.3-6c-1.16-2-1.88-2.45-5.84-2.45H67.8V201c0,5.61.58,6.41,7.42,6.84v2H54.27v-2c6.69-.43,7.27-1.15,7.27-6.84V165.88H55c-4,0-5.12.43-6.34,2.59a33.4,33.4,0,0,0-2.38,5.84H44.11c.43-4.4.87-8.93,1.08-13h1.66c1.08,1.73,1.87,1.66,3.89,1.66H79.25c2,0,2.59-.29,3.67-1.66h1.73c0,3.39.29,8.57.65,12.75Z"/><path class="cls-1" d="M133.9,210.38c-.94,0-1.73-.07-2.66-.14-5.26-.36-8.07-1.73-11.24-6.2-2.66-3.67-5.25-8.21-7.56-11.88-1.44-2.3-2.37-2.73-6-2.73h-2.52v11.3c0,6.12.8,6.48,6.56,7.06v2H91.2v-2c6-.65,6.48-.94,6.48-7.06V172c0-6.12-.79-6.34-6.48-7v-2h18.36c5.26,0,8.79.65,11.52,2.45A10.74,10.74,0,0,1,126,175c0,6.2-4,10.08-9.29,12.39,1.3,2.23,4.39,7.06,6.55,10.3a68,68,0,0,0,5.69,7.41,10.35,10.35,0,0,0,5.26,3.31ZM107.33,187c3.74,0,6.12-.58,7.92-2.09,2.81-2.09,4-5,4-8.86,0-7.7-5.11-10.51-10.66-10.51-2.08,0-3.31.29-3.81.72s-.87,1.22-.87,3.1V187Z"/><path class="cls-1" d="M174.07,198.35c-.43,1.88-2.37,9.29-3.09,11.45H136v-2c6.7-.51,7.2-1.15,7.2-7.06V172.29c0-6.41-.79-6.77-6.19-7.27v-2h22c6.76,0,9.57-.07,10.44-.14.07,1.8.36,7.2.64,11l-2.16.36a23.18,23.18,0,0,0-2.16-5.47c-1.15-2.38-2.8-2.88-7.12-2.88h-6.84c-2.24,0-2.38.22-2.38,2.3V184.1h8c5.4,0,5.76-1.08,6.63-6h2.23V193h-2.23c-.94-5.18-1.52-5.9-6.7-5.9h-7.92v14.33c0,5,1.58,5.47,5.18,5.54h6.7c4.39,0,5.11-.64,6.7-2.52a30.78,30.78,0,0,0,3.88-6.62Z"/><path class="cls-1" d="M203.38,209.8v-2c4.68-.58,5.25-1.3,4.24-4s-2.37-6.41-3.88-10.95H188.18c-1.15,3.24-2.23,6.05-3.24,9-1.58,4.68-.57,5.26,5.33,6v2H173.64v-2c4.53-.58,5.69-1.08,8.21-7.56l14.9-37.81,2.31-.43c4.53,12.32,9.5,25.92,14,38.38,2.3,6.27,3,6.84,8.06,7.42v2Zm-7.2-38.38c-2.31,6.2-4.76,12.75-6.92,18.44h13.47Z"/><path class="cls-1" d="M264.43,209.8v-2c5.91-.58,6.12-1,6.05-8.71l.07-29.38c-5.9,13.17-15.41,33.77-17.93,40.1h-1.87c-2.45-6.55-10.58-26.35-16.05-39.38-1.23,25.2-1.3,30.89-1.3,32.26.07,4,1.87,4.6,6.77,5.11v2H223.1v-2c4.18-.43,5.91-1.3,6.48-5.19.43-3.16.51-5.76,2.38-32,.29-3.74-.43-5-6.77-5.54v-2h12.53l15.91,36.51L270.7,163h12.6v2c-6.19.72-7,1.36-6.84,6.4l.29,27.66c.29,7.7.5,8.06,6.84,8.71v2Z"/><path class="cls-2" d="M329.52,209.8v-2c5.9-.58,6.12-1,6.05-8.71l.07-29.38c-5.9,13.17-15.41,33.77-17.93,40.1h-1.87c-2.45-6.55-10.59-26.35-16.06-39.38-1.22,25.2-1.29,30.89-1.29,32.26.07,4,1.87,4.6,6.76,5.11v2H288.19v-2c4.18-.43,5.9-1.3,6.48-5.19.43-3.16.5-5.76,2.38-32,.28-3.74-.44-5-6.77-5.54v-2h12.53l15.91,36.51L335.79,163h12.6v2c-6.2.72-7,1.36-6.84,6.4l.28,27.66c.29,7.7.51,8.06,6.84,8.71v2Z"/><path class="cls-2" d="M392.52,198.35c-.43,1.88-2.38,9.29-3.1,11.45h-35v-2c6.69-.51,7.2-1.15,7.2-7.06V172.29c0-6.41-.79-6.77-6.19-7.27v-2h22c6.77,0,9.58-.07,10.44-.14.07,1.8.36,7.2.65,11l-2.16.36a24.07,24.07,0,0,0-2.16-5.47c-1.15-2.38-2.81-2.88-7.13-2.88h-6.84c-2.23,0-2.38.22-2.38,2.3V184.1h8c5.4,0,5.76-1.08,6.62-6h2.23V193h-2.23c-.94-5.18-1.51-5.9-6.7-5.9h-7.92v14.33c0,5,1.59,5.47,5.19,5.54h6.69c4.4,0,5.12-.64,6.7-2.52a30.8,30.8,0,0,0,3.89-6.62Z"/><path class="cls-1" d="M258.89,78.25a58.25,58.25,0,0,1-58.25,58.25c-32.17,0,19.57-47.71-58.25-58.25C110.51,73.93,168.47,20,200.64,20A58.25,58.25,0,0,1,258.89,78.25Z"/><polygon class="cls-2" points="188.89 42 188.89 110 236.89 77.5 188.89 42"/><polyline class="cls-3" points="225.89 77.5 188.89 42 188.89 110"/></svg>