<?xml version="1.0" encoding="utf-8"?>
<!-- Generator: Adobe Illustrator 23.0.5, SVG Export Plug-In . SVG Version: 6.00 Build 0)  -->
<svg version="1.1" id="Calque_1" xmlns="http://www.w3.org/2000/svg" xmlns:xlink="http://www.w3.org/1999/xlink" x="0px" y="0px"
	 viewBox="0 0 22 19.2" style="enable-background:new 0 0 22 19.2;" xml:space="preserve">
<style type="text/css">
	.st0{fill:none;}
	.st1{fill-rule:evenodd;clip-rule:evenodd;fill:#D12F26;}
</style>
<title>favorite</title>
<desc>Created with Sketch.</desc>
<g id="Icons">
	<g id="Rounded" transform="translate(-306.000000, -289.000000)">
		<g id="Action" transform="translate(100.000000, 100.000000)">
			<g transform="translate(204.000000, 186.000000)">
				<g>
					<polygon id="Path" class="st0" points="1,1 25,1 25,25 1,25 					"/>
					<path class="st1" d="M14.4,21.1c-0.8,0.7-1.9,0.7-2.7,0L11.6,21C6.3,16.3,2.9,13.2,3,9.3C3.1,7.6,3.9,5.9,5.3,5
						C8,3.2,11.2,4,13,6.1C14.8,4,18,3.2,20.7,5C22.1,6,23,7.6,23,9.3C23.1,13.2,19.7,16.3,14.4,21.1L14.4,21.1z"/>
				</g>
			</g>
		</g>
	</g>
</g>
</svg>
