<?xml version="1.0" encoding="utf-8"?>
<!-- Generator: Adobe Illustrator 23.0.5, SVG Export Plug-In . SVG Version: 6.00 Build 0)  -->
<svg version="1.1" id="Calque_1" xmlns="http://www.w3.org/2000/svg" xmlns:xlink="http://www.w3.org/1999/xlink" x="0px" y="0px"
	 viewBox="0 0 48.5 48.9" style="enable-background:new 0 0 48.5 48.9;" xml:space="preserve">
<style type="text/css">
	.st0{fill:#D12F26;}
</style>
<g id="Layer_70">
	<path class="st0" d="M43.8,6.1l-17-3C26,3,25.2,3.5,25.1,4.3c0,0.1,0,0.2,0,0.2v1.7l-9.7,2.4c-0.7,0.2-1.1,0.8-1.1,1.5v4.1
		c0,0.8,0.7,1.5,1.5,1.5s1.5-0.7,1.5-1.5v-2.9l7.8-1.9V40l-7.8-1.9v-2.5c0-0.8-0.7-1.5-1.5-1.5s-1.5,0.7-1.5,1.5v3.7
		c0,0.7,0.5,1.3,1.1,1.5l9.6,2.3v1.5c0,0.8,0.7,1.5,1.5,1.5c0.1,0,0.1,0,0.2,0l17-3c0.7-0.1,1.2-0.8,1.2-1.5v-34
		C45,6.9,44.5,6.2,43.8,6.1z"/>
	<path class="st0" d="M20.7,24.6c0-0.8-0.7-1.5-1.5-1.5h-8.1v-4.5c0-0.8-0.7-1.5-1.6-1.4c-0.4,0-0.7,0.2-1,0.4l-6,6
		c-0.6,0.6-0.6,1.5,0,2.1l6,6c0.6,0.6,1.5,0.6,2.1,0c0.3-0.3,0.5-0.7,0.4-1.1v-4.5h8.1C20,26.1,20.7,25.4,20.7,24.6z"/>
</g>
</svg>
